<mxfile host="Electron" agent="Mozilla/5.0 (Windows NT 10.0; Win64; x64) AppleWebKit/537.36 (KHTML, like Gecko) draw.io/26.0.7 Chrome/128.0.6613.186 Electron/32.2.5 Safari/537.36" version="26.0.7">
  <diagram name="Page-1" id="8IhE2HLD83tgTnc-BUno">
    <mxGraphModel dx="1050" dy="621" grid="1" gridSize="10" guides="1" tooltips="1" connect="1" arrows="1" fold="1" page="1" pageScale="1" pageWidth="850" pageHeight="1100" math="0" shadow="0">
      <root>
        <mxCell id="0" />
        <mxCell id="1" parent="0" />
        <mxCell id="yieLIWgOhTAhcxeFKc74-1" value="" style="rounded=0;whiteSpace=wrap;html=1;" vertex="1" parent="1">
          <mxGeometry x="360" y="160" width="370" height="280" as="geometry" />
        </mxCell>
        <mxCell id="ThCCWCyqyCAb90cQ_p1h-2" value="Quản lý kết&lt;br&gt;quả thi" style="ellipse;whiteSpace=wrap;html=1;fillColor=#ffe6cc;strokeColor=#d79b00;fontSize=14;" parent="1" vertex="1">
          <mxGeometry x="414" y="290" width="110" height="50" as="geometry" />
        </mxCell>
        <mxCell id="ThCCWCyqyCAb90cQ_p1h-4" style="rounded=0;orthogonalLoop=1;jettySize=auto;html=1;entryX=0;entryY=0.5;entryDx=0;entryDy=0;fillColor=#ffe6cc;strokeColor=#d79b00;exitX=1;exitY=0;exitDx=0;exitDy=0;dashed=1;fontSize=14;endArrow=open;endFill=0;" parent="1" source="ThCCWCyqyCAb90cQ_p1h-2" target="ThCCWCyqyCAb90cQ_p1h-7" edge="1">
          <mxGeometry relative="1" as="geometry">
            <mxPoint x="516" y="280" as="sourcePoint" />
          </mxGeometry>
        </mxCell>
        <mxCell id="ThCCWCyqyCAb90cQ_p1h-5" style="rounded=0;orthogonalLoop=1;jettySize=auto;html=1;exitX=1;exitY=0.5;exitDx=0;exitDy=0;entryX=0;entryY=0.5;entryDx=0;entryDy=0;fillColor=#ffe6cc;strokeColor=#d79b00;dashed=1;fontSize=14;endArrow=open;endFill=0;" parent="1" source="ThCCWCyqyCAb90cQ_p1h-2" target="ThCCWCyqyCAb90cQ_p1h-8" edge="1">
          <mxGeometry relative="1" as="geometry">
            <mxPoint x="503" y="294" as="sourcePoint" />
          </mxGeometry>
        </mxCell>
        <mxCell id="ThCCWCyqyCAb90cQ_p1h-7" value="Xem kết quả" style="ellipse;whiteSpace=wrap;html=1;fillColor=#ffe6cc;strokeColor=#d79b00;fontSize=14;" parent="1" vertex="1">
          <mxGeometry x="620" y="224" width="90" height="40" as="geometry" />
        </mxCell>
        <mxCell id="ThCCWCyqyCAb90cQ_p1h-8" value="Xuất kết quả" style="ellipse;whiteSpace=wrap;html=1;fillColor=#ffe6cc;strokeColor=#d79b00;fontSize=14;" parent="1" vertex="1">
          <mxGeometry x="610" y="340" width="90" height="40" as="geometry" />
        </mxCell>
        <mxCell id="ThCCWCyqyCAb90cQ_p1h-10" value="&lt;font style=&quot;font-size: 14px;&quot;&gt;&amp;lt;&amp;lt;extend&amp;gt;&amp;gt;&lt;/font&gt;" style="text;html=1;strokeColor=none;fillColor=none;align=center;verticalAlign=middle;whiteSpace=wrap;rounded=0;rotation=-25;fontSize=14;" parent="1" vertex="1">
          <mxGeometry x="524" y="245" width="60" height="30" as="geometry" />
        </mxCell>
        <mxCell id="ThCCWCyqyCAb90cQ_p1h-11" value="&lt;font style=&quot;font-size: 14px;&quot;&gt;&amp;lt;&amp;lt;extend&amp;gt;&amp;gt;&lt;/font&gt;" style="text;html=1;strokeColor=none;fillColor=none;align=center;verticalAlign=middle;whiteSpace=wrap;rounded=0;rotation=30;fontSize=14;" parent="1" vertex="1">
          <mxGeometry x="542" y="310" width="60" height="30" as="geometry" />
        </mxCell>
        <mxCell id="ThCCWCyqyCAb90cQ_p1h-12" style="rounded=0;orthogonalLoop=1;jettySize=auto;html=1;entryX=0.011;entryY=0.399;entryDx=0;entryDy=0;fillColor=#f8cecc;strokeColor=#b85450;fontSize=14;entryPerimeter=0;" parent="1" source="ThCCWCyqyCAb90cQ_p1h-13" target="ThCCWCyqyCAb90cQ_p1h-2" edge="1">
          <mxGeometry relative="1" as="geometry">
            <mxPoint x="414.0000000000001" y="315" as="targetPoint" />
          </mxGeometry>
        </mxCell>
        <mxCell id="ThCCWCyqyCAb90cQ_p1h-13" value="Quản trị viên" style="shape=umlActor;verticalLabelPosition=bottom;verticalAlign=top;html=1;outlineConnect=0;fillColor=#f8cecc;strokeColor=#b85450;fontSize=14;" parent="1" vertex="1">
          <mxGeometry x="290" y="231.00000000000006" width="30" height="60" as="geometry" />
        </mxCell>
        <mxCell id="ThCCWCyqyCAb90cQ_p1h-14" style="rounded=0;orthogonalLoop=1;jettySize=auto;html=1;entryX=0.24;entryY=0.072;entryDx=0;entryDy=0;fillColor=#ffe6cc;strokeColor=#d79b00;endArrow=open;endFill=0;dashed=1;exitX=0.5;exitY=1;exitDx=0;exitDy=0;entryPerimeter=0;" parent="1" source="ThCCWCyqyCAb90cQ_p1h-15" target="ThCCWCyqyCAb90cQ_p1h-2" edge="1">
          <mxGeometry relative="1" as="geometry">
            <mxPoint x="325.5" y="106" as="targetPoint" />
            <mxPoint x="325" y="196" as="sourcePoint" />
          </mxGeometry>
        </mxCell>
        <mxCell id="ThCCWCyqyCAb90cQ_p1h-15" value="Đăng nhập" style="ellipse;whiteSpace=wrap;html=1;fillColor=#ffe6cc;strokeColor=#d79b00;fontSize=14;" parent="1" vertex="1">
          <mxGeometry x="390" y="170" width="90" height="40" as="geometry" />
        </mxCell>
        <mxCell id="ThCCWCyqyCAb90cQ_p1h-16" value="&lt;font&gt;&amp;lt;&amp;lt;include&amp;gt;&amp;gt;&lt;/font&gt;" style="text;html=1;strokeColor=none;fillColor=none;align=center;verticalAlign=middle;whiteSpace=wrap;rounded=0;rotation=90;fontSize=14;" parent="1" vertex="1">
          <mxGeometry x="430" y="234" width="60" height="30" as="geometry" />
        </mxCell>
        <mxCell id="ThCCWCyqyCAb90cQ_p1h-17" style="rounded=0;orthogonalLoop=1;jettySize=auto;html=1;entryX=0.008;entryY=0.593;entryDx=0;entryDy=0;fillColor=#dae8fc;strokeColor=#6c8ebf;entryPerimeter=0;" parent="1" source="ThCCWCyqyCAb90cQ_p1h-18" target="ThCCWCyqyCAb90cQ_p1h-2" edge="1">
          <mxGeometry relative="1" as="geometry" />
        </mxCell>
        <mxCell id="ThCCWCyqyCAb90cQ_p1h-18" value="Giáo viên" style="shape=umlActor;verticalLabelPosition=bottom;verticalAlign=top;html=1;outlineConnect=0;fillColor=#dae8fc;strokeColor=#6c8ebf;fontSize=14;" parent="1" vertex="1">
          <mxGeometry x="290" y="340.00000000000006" width="30" height="60" as="geometry" />
        </mxCell>
      </root>
    </mxGraphModel>
  </diagram>
</mxfile>
